<svg xmlns="http://www.w3.org/2000/svg" viewBox="0 0 960 540" width="100%" height="100%" style="background-color: #131722; font-family: -apple-system, BlinkMacSystemFont, PingFang SC, Segoe UI, sans-serif;">

    <defs>
        <filter id="shadow" x="-5%" y="-5%" width="110%" height="110%">
            <feDropShadow dx="0" dy="2" stdDeviation="3" flood-opacity="0.3"/>
        </filter>
    </defs>
    

    <!-- 顶部状态栏 -->
    <text x="65" y="36" fill="#ffffff" font-size="20" font-weight="bold">比亚迪 (sz002594)</text>
    <text x="65" y="60" fill="#848e9c" font-size="12">最新: <tspan fill="#2ecc71" font-weight="bold" font-size="16">83.80</tspan>  涨跌: <tspan fill="#2ecc71">-0.16 (-0.19%)</tspan>  高: 83.93  低: 83.11  额: 8.94亿</text>
    <text x="885" y="36" fill="#848e9c" font-size="12" text-anchor="end">20260917130100</text>
    <!-- 图例 -->
    <g transform="translate(655, 50)" font-size="11">
        <circle cx="0" cy="0" r="4" fill="#f1c40f" />
        <text x="8" y="4" fill="#f1c40f">MA5</text>
        <circle cx="55" cy="0" r="4" fill="#00d2d3" />
        <text x="63" y="4" fill="#00d2d3">MA10</text>
        <circle cx="120" cy="0" r="4" fill="#e056fd" />
        <text x="128" y="4" fill="#e056fd">MA20</text>
    </g>
    
<line x1="65" y1="80.0" x2="885" y2="80.0" stroke="#2a2e39" stroke-width="1" stroke-dasharray="3,3" />
<text x="893" y="84.0" fill="#848e9c" font-size="10">88.79</text>
<line x1="65" y1="139.8" x2="885" y2="139.8" stroke="#2a2e39" stroke-width="1" stroke-dasharray="3,3" />
<text x="893" y="143.8" fill="#848e9c" font-size="10">86.67</text>
<line x1="65" y1="199.6" x2="885" y2="199.6" stroke="#2a2e39" stroke-width="1" stroke-dasharray="3,3" />
<text x="893" y="203.6" fill="#848e9c" font-size="10">84.55</text>
<line x1="65" y1="259.4" x2="885" y2="259.4" stroke="#2a2e39" stroke-width="1" stroke-dasharray="3,3" />
<text x="893" y="263.4" fill="#848e9c" font-size="10">82.44</text>
<line x1="65" y1="319.2" x2="885" y2="319.2" stroke="#2a2e39" stroke-width="1" stroke-dasharray="3,3" />
<text x="893" y="323.2" fill="#848e9c" font-size="10">80.32</text>
<line x1="65" y1="379.0" x2="885" y2="379.0" stroke="#2a2e39" stroke-width="1" stroke-dasharray="3,3" />
<text x="893" y="383.0" fill="#848e9c" font-size="10">78.20</text>
<line x1="73.2" y1="199.4" x2="73.2" y2="305.9" stroke="#eb4d4b" stroke-width="1.2" />
<rect x="67.9" y="234.7" width="10.7" height="24.6" fill="#eb4d4b" rx="1" />
<rect x="67.9" y="455.1" width="10.7" height="39.9" fill="#eb4d4b" opacity="0.85" />
<line x1="89.6" y1="181.3" x2="89.6" y2="281.6" stroke="#eb4d4b" stroke-width="1.2" />
<rect x="84.3" y="205.1" width="10.7" height="41.5" fill="#eb4d4b" rx="1" />
<rect x="84.3" y="453.8" width="10.7" height="41.2" fill="#eb4d4b" opacity="0.85" />
<line x1="106.0" y1="193.2" x2="106.0" y2="253.1" stroke="#2ecc71" stroke-width="1.2" />
<rect x="100.7" y="205.1" width="10.7" height="24.3" fill="#2ecc71" rx="1" />
<rect x="100.7" y="453.4" width="10.7" height="41.6" fill="#2ecc71" opacity="0.85" />
<line x1="122.4" y1="217.5" x2="122.4" y2="236.1" stroke="#2ecc71" stroke-width="1.2" />
<rect x="117.1" y="217.5" width="10.7" height="7.1" fill="#2ecc71" rx="1" />
<rect x="117.1" y="452.5" width="10.7" height="42.5" fill="#2ecc71" opacity="0.85" />
<line x1="138.8" y1="142.7" x2="138.8" y2="200.8" stroke="#eb4d4b" stroke-width="1.2" />
<rect x="133.5" y="190.4" width="10.7" height="10.4" fill="#eb4d4b" rx="1" />
<rect x="133.5" y="451.1" width="10.7" height="43.9" fill="#eb4d4b" opacity="0.85" />
<line x1="155.2" y1="174.9" x2="155.2" y2="273.7" stroke="#eb4d4b" stroke-width="1.2" />
<rect x="149.9" y="210.7" width="10.7" height="15.8" fill="#eb4d4b" rx="1" />
<rect x="149.9" y="450.7" width="10.7" height="44.3" fill="#eb4d4b" opacity="0.85" />
<line x1="171.6" y1="177.7" x2="171.6" y2="269.7" stroke="#eb4d4b" stroke-width="1.2" />
<rect x="166.3" y="201.4" width="10.7" height="33.0" fill="#eb4d4b" rx="1" />
<rect x="166.3" y="449.7" width="10.7" height="45.3" fill="#eb4d4b" opacity="0.85" />
<line x1="188.0" y1="150.8" x2="188.0" y2="237.3" stroke="#eb4d4b" stroke-width="1.2" />
<rect x="182.7" y="163.0" width="10.7" height="50.5" fill="#eb4d4b" rx="1" />
<rect x="182.7" y="448.1" width="10.7" height="46.9" fill="#eb4d4b" opacity="0.85" />
<line x1="204.4" y1="163.0" x2="204.4" y2="191.2" stroke="#2ecc71" stroke-width="1.2" />
<rect x="199.1" y="163.0" width="10.7" height="16.1" fill="#2ecc71" rx="1" />
<rect x="199.1" y="447.6" width="10.7" height="47.4" fill="#2ecc71" opacity="0.85" />
<line x1="220.8" y1="117.2" x2="220.8" y2="167.2" stroke="#eb4d4b" stroke-width="1.2" />
<rect x="215.5" y="165.8" width="10.7" height="1.5" fill="#eb4d4b" rx="1" />
<rect x="215.5" y="446.6" width="10.7" height="48.4" fill="#eb4d4b" opacity="0.85" />
<line x1="237.2" y1="104.8" x2="237.2" y2="254.8" stroke="#2ecc71" stroke-width="1.2" />
<rect x="231.9" y="141.5" width="10.7" height="65.8" fill="#2ecc71" rx="1" />
<rect x="231.9" y="446.6" width="10.7" height="48.4" fill="#2ecc71" opacity="0.85" />
<line x1="253.6" y1="195.2" x2="253.6" y2="278.2" stroke="#eb4d4b" stroke-width="1.2" />
<rect x="248.3" y="218.9" width="10.7" height="24.0" fill="#eb4d4b" rx="1" />
<rect x="248.3" y="446.0" width="10.7" height="49.0" fill="#eb4d4b" opacity="0.85" />
<line x1="270.0" y1="189.5" x2="270.0" y2="266.1" stroke="#eb4d4b" stroke-width="1.2" />
<rect x="264.7" y="201.4" width="10.7" height="41.2" fill="#eb4d4b" rx="1" />
<rect x="264.7" y="444.9" width="10.7" height="50.1" fill="#eb4d4b" opacity="0.85" />
<line x1="286.4" y1="213.5" x2="286.4" y2="250.0" stroke="#2ecc71" stroke-width="1.2" />
<rect x="281.1" y="213.5" width="10.7" height="24.6" fill="#2ecc71" rx="1" />
<rect x="281.1" y="444.9" width="10.7" height="50.1" fill="#2ecc71" opacity="0.85" />
<line x1="302.8" y1="191.2" x2="302.8" y2="245.7" stroke="#2ecc71" stroke-width="1.2" />
<rect x="297.5" y="238.1" width="10.7" height="7.6" fill="#2ecc71" rx="1" />
<rect x="297.5" y="444.2" width="10.7" height="50.8" fill="#2ecc71" opacity="0.85" />
<line x1="319.2" y1="189.0" x2="319.2" y2="281.0" stroke="#eb4d4b" stroke-width="1.2" />
<rect x="313.9" y="224.3" width="10.7" height="9.6" fill="#eb4d4b" rx="1" />
<rect x="313.9" y="443.0" width="10.7" height="52.0" fill="#eb4d4b" opacity="0.85" />
<line x1="335.6" y1="176.8" x2="335.6" y2="291.5" stroke="#2ecc71" stroke-width="1.2" />
<rect x="330.3" y="200.8" width="10.7" height="55.6" fill="#2ecc71" rx="1" />
<rect x="330.3" y="442.9" width="10.7" height="52.1" fill="#2ecc71" opacity="0.85" />
<line x1="352.0" y1="248.3" x2="352.0" y2="314.3" stroke="#eb4d4b" stroke-width="1.2" />
<rect x="346.7" y="259.8" width="10.7" height="31.6" fill="#eb4d4b" rx="1" />
<rect x="346.7" y="442.2" width="10.7" height="52.8" fill="#eb4d4b" opacity="0.85" />
<line x1="368.4" y1="234.7" x2="368.4" y2="294.6" stroke="#eb4d4b" stroke-width="1.2" />
<rect x="363.1" y="234.7" width="10.7" height="48.3" fill="#eb4d4b" rx="1" />
<rect x="363.1" y="440.8" width="10.7" height="54.2" fill="#eb4d4b" opacity="0.85" />
<line x1="384.8" y1="199.4" x2="384.8" y2="262.7" stroke="#2ecc71" stroke-width="1.2" />
<rect x="379.5" y="246.3" width="10.7" height="16.4" fill="#2ecc71" rx="1" />
<rect x="379.5" y="440.7" width="10.7" height="54.3" fill="#2ecc71" opacity="0.85" />
<line x1="401.2" y1="226.8" x2="401.2" y2="309.3" stroke="#eb4d4b" stroke-width="1.2" />
<rect x="395.9" y="261.8" width="10.7" height="1.5" fill="#eb4d4b" rx="1" />
<rect x="395.9" y="439.9" width="10.7" height="55.1" fill="#eb4d4b" opacity="0.85" />
<line x1="417.6" y1="209.0" x2="417.6" y2="285.3" stroke="#eb4d4b" stroke-width="1.2" />
<rect x="412.3" y="232.5" width="10.7" height="17.8" fill="#eb4d4b" rx="1" />
<rect x="412.3" y="438.4" width="10.7" height="56.6" fill="#eb4d4b" opacity="0.85" />
<line x1="434.0" y1="197.2" x2="434.0" y2="279.6" stroke="#2ecc71" stroke-width="1.2" />
<rect x="428.7" y="209.0" width="10.7" height="47.4" fill="#2ecc71" rx="1" />
<rect x="428.7" y="438.2" width="10.7" height="56.8" fill="#2ecc71" opacity="0.85" />
<line x1="450.4" y1="251.4" x2="450.4" y2="303.0" stroke="#eb4d4b" stroke-width="1.2" />
<rect x="445.1" y="251.4" width="10.7" height="40.1" fill="#eb4d4b" rx="1" />
<rect x="445.1" y="437.3" width="10.7" height="57.7" fill="#eb4d4b" opacity="0.85" />
<line x1="466.8" y1="170.6" x2="466.8" y2="274.8" stroke="#eb4d4b" stroke-width="1.2" />
<rect x="461.5" y="218.1" width="10.7" height="56.8" fill="#eb4d4b" rx="1" />
<rect x="461.5" y="435.7" width="10.7" height="59.3" fill="#eb4d4b" opacity="0.85" />
<line x1="483.2" y1="194.6" x2="483.2" y2="285.0" stroke="#2ecc71" stroke-width="1.2" />
<rect x="477.9" y="229.9" width="10.7" height="7.9" fill="#2ecc71" rx="1" />
<rect x="477.9" y="435.4" width="10.7" height="59.6" fill="#2ecc71" opacity="0.85" />
<line x1="499.6" y1="205.3" x2="499.6" y2="273.1" stroke="#eb4d4b" stroke-width="1.2" />
<rect x="494.3" y="228.8" width="10.7" height="9.0" fill="#eb4d4b" rx="1" />
<rect x="494.3" y="434.4" width="10.7" height="60.6" fill="#eb4d4b" opacity="0.85" />
<line x1="516.0" y1="178.8" x2="516.0" y2="240.6" stroke="#eb4d4b" stroke-width="1.2" />
<rect x="510.7" y="190.9" width="10.7" height="26.0" fill="#eb4d4b" rx="1" />
<rect x="510.7" y="432.6" width="10.7" height="62.4" fill="#eb4d4b" opacity="0.85" />
<line x1="532.4" y1="166.9" x2="532.4" y2="218.6" stroke="#2ecc71" stroke-width="1.2" />
<rect x="527.1" y="166.9" width="10.7" height="39.8" fill="#2ecc71" rx="1" />
<rect x="527.1" y="432.2" width="10.7" height="62.8" fill="#2ecc71" opacity="0.85" />
<line x1="548.8" y1="145.5" x2="548.8" y2="242.6" stroke="#eb4d4b" stroke-width="1.2" />
<rect x="543.5" y="193.5" width="10.7" height="49.1" fill="#eb4d4b" rx="1" />
<rect x="543.5" y="431.0" width="10.7" height="64.0" fill="#eb4d4b" opacity="0.85" />
<line x1="565.2" y1="181.9" x2="565.2" y2="281.6" stroke="#2ecc71" stroke-width="1.2" />
<rect x="559.9" y="217.5" width="10.7" height="16.9" fill="#2ecc71" rx="1" />
<rect x="559.9" y="431.3" width="10.7" height="63.7" fill="#2ecc71" opacity="0.85" />
<line x1="581.6" y1="222.6" x2="581.6" y2="281.3" stroke="#eb4d4b" stroke-width="1.2" />
<rect x="576.3" y="246.0" width="10.7" height="1.5" fill="#eb4d4b" rx="1" />
<rect x="576.3" y="430.9" width="10.7" height="64.1" fill="#eb4d4b" opacity="0.85" />
<line x1="598.0" y1="216.9" x2="598.0" y2="269.4" stroke="#eb4d4b" stroke-width="1.2" />
<rect x="592.7" y="228.8" width="10.7" height="17.2" fill="#eb4d4b" rx="1" />
<rect x="592.7" y="429.6" width="10.7" height="65.4" fill="#eb4d4b" opacity="0.85" />
<line x1="614.4" y1="216.9" x2="614.4" y2="276.8" stroke="#2ecc71" stroke-width="1.2" />
<rect x="609.1" y="216.9" width="10.7" height="48.3" fill="#2ecc71" rx="1" />
<rect x="609.1" y="429.8" width="10.7" height="65.2" fill="#2ecc71" opacity="0.85" />
<line x1="630.8" y1="195.2" x2="630.8" y2="272.5" stroke="#2ecc71" stroke-width="1.2" />
<rect x="625.5" y="242.1" width="10.7" height="30.5" fill="#2ecc71" rx="1" />
<rect x="625.5" y="429.3" width="10.7" height="65.7" fill="#2ecc71" opacity="0.85" />
<line x1="647.2" y1="216.4" x2="647.2" y2="352.7" stroke="#eb4d4b" stroke-width="1.2" />
<rect x="641.9" y="251.4" width="10.7" height="55.9" fill="#eb4d4b" rx="1" />
<rect x="641.9" y="427.9" width="10.7" height="67.1" fill="#eb4d4b" opacity="0.85" />
<line x1="663.6" y1="251.7" x2="663.6" y2="317.7" stroke="#2ecc71" stroke-width="1.2" />
<rect x="658.3" y="274.8" width="10.7" height="8.5" fill="#2ecc71" rx="1" />
<rect x="658.3" y="428.0" width="10.7" height="67.0" fill="#2ecc71" opacity="0.85" />
<line x1="680.0" y1="275.1" x2="680.0" y2="317.7" stroke="#eb4d4b" stroke-width="1.2" />
<rect x="674.7" y="286.4" width="10.7" height="8.5" fill="#eb4d4b" rx="1" />
<rect x="674.7" y="427.3" width="10.7" height="67.7" fill="#eb4d4b" opacity="0.85" />
<line x1="696.4" y1="261.5" x2="696.4" y2="298.0" stroke="#eb4d4b" stroke-width="1.2" />
<rect x="691.1" y="261.5" width="10.7" height="24.8" fill="#eb4d4b" rx="1" />
<rect x="691.1" y="425.8" width="10.7" height="69.2" fill="#eb4d4b" opacity="0.85" />
<line x1="712.8" y1="203.1" x2="712.8" y2="289.2" stroke="#2ecc71" stroke-width="1.2" />
<rect x="707.5" y="250.0" width="10.7" height="39.2" fill="#2ecc71" rx="1" />
<rect x="707.5" y="425.9" width="10.7" height="69.1" fill="#2ecc71" opacity="0.85" />
<line x1="729.2" y1="231.6" x2="729.2" y2="334.4" stroke="#2ecc71" stroke-width="1.2" />
<rect x="723.9" y="266.3" width="10.7" height="22.0" fill="#2ecc71" rx="1" />
<rect x="723.9" y="425.1" width="10.7" height="69.9" fill="#2ecc71" opacity="0.85" />
<line x1="745.6" y1="236.1" x2="745.6" y2="356.7" stroke="#eb4d4b" stroke-width="1.2" />
<rect x="740.3" y="259.6" width="10.7" height="63.3" fill="#eb4d4b" rx="1" />
<rect x="740.3" y="423.4" width="10.7" height="71.6" fill="#eb4d4b" opacity="0.85" />
<line x1="762.0" y1="271.1" x2="762.0" y2="306.2" stroke="#2ecc71" stroke-width="1.2" />
<rect x="756.7" y="282.7" width="10.7" height="1.5" fill="#2ecc71" rx="1" />
<rect x="756.7" y="423.4" width="10.7" height="71.6" fill="#2ecc71" opacity="0.85" />
<line x1="778.4" y1="278.2" x2="778.4" y2="306.2" stroke="#eb4d4b" stroke-width="1.2" />
<rect x="773.1" y="278.2" width="10.7" height="16.4" fill="#eb4d4b" rx="1" />
<rect x="773.1" y="422.4" width="10.7" height="72.6" fill="#eb4d4b" opacity="0.85" />
<line x1="794.8" y1="198.3" x2="794.8" y2="278.2" stroke="#eb4d4b" stroke-width="1.2" />
<rect x="789.5" y="245.2" width="10.7" height="33.0" fill="#eb4d4b" rx="1" />
<rect x="789.5" y="420.6" width="10.7" height="74.4" fill="#eb4d4b" opacity="0.85" />
<line x1="811.2" y1="198.0" x2="811.2" y2="311.2" stroke="#2ecc71" stroke-width="1.2" />
<rect x="805.9" y="233.3" width="10.7" height="31.3" fill="#2ecc71" rx="1" />
<rect x="805.9" y="420.5" width="10.7" height="74.5" fill="#2ecc71" opacity="0.85" />
<line x1="827.6" y1="218.1" x2="827.6" y2="290.9" stroke="#2ecc71" stroke-width="1.2" />
<rect x="822.3" y="241.5" width="10.7" height="14.4" fill="#2ecc71" rx="1" />
<rect x="822.3" y="419.4" width="10.7" height="75.6" fill="#2ecc71" opacity="0.85" />
<line x1="844.0" y1="206.5" x2="844.0" y2="313.8" stroke="#eb4d4b" stroke-width="1.2" />
<rect x="838.7" y="218.3" width="10.7" height="72.6" fill="#eb4d4b" rx="1" />
<rect x="838.7" y="417.4" width="10.7" height="77.6" fill="#eb4d4b" opacity="0.85" />
<line x1="860.4" y1="234.1" x2="860.4" y2="253.9" stroke="#eb4d4b" stroke-width="1.2" />
<rect x="855.1" y="234.1" width="10.7" height="7.9" fill="#eb4d4b" rx="1" />
<rect x="855.1" y="417.1" width="10.7" height="77.9" fill="#eb4d4b" opacity="0.85" />
<line x1="876.8" y1="173.4" x2="876.8" y2="245.7" stroke="#eb4d4b" stroke-width="1.2" />
<rect x="871.5" y="220.9" width="10.7" height="24.8" fill="#eb4d4b" rx="1" />
<rect x="871.5" y="415.9" width="10.7" height="79.1" fill="#eb4d4b" opacity="0.85" />
<polyline points="73.2,228.0 89.6,223.1 106.0,222.4 122.4,225.8 138.8,216.8 155.2,212.0 171.6,211.3 188.0,198.0 204.4,188.9 220.8,184.0 237.2,183.3 253.6,186.8 270.0,194.5 286.4,206.3 302.8,222.3 319.2,225.7 335.6,233.2 352.0,244.9 368.4,244.2 384.8,247.6 401.2,255.1 417.6,250.3 434.0,249.6 450.4,253.0 466.8,244.0 483.2,239.2 499.6,238.5 516.0,225.4 532.4,216.5 548.8,211.6 565.2,210.9 581.6,214.3 598.0,221.9 614.4,233.6 630.8,249.4 647.2,252.8 663.6,260.2 680.0,271.8 696.4,271.0 712.8,274.4 729.2,281.8 745.6,277.0 762.0,276.3 778.4,279.7 794.8,270.9 811.2,266.1 827.6,265.4 844.0,252.4 860.4,243.6 876.8,238.8" fill="none" stroke="#f1c40f" stroke-width="1.8" stroke-linecap="round" />
<polyline points="73.2,213.2 89.6,214.5 106.0,220.1 122.4,221.4 138.8,218.6 155.2,220.0 171.6,217.2 188.0,210.2 204.4,207.4 220.8,200.4 237.2,197.7 253.6,199.0 270.0,196.3 286.4,197.6 302.8,203.1 319.2,204.5 335.6,210.0 352.0,219.7 368.4,225.3 384.8,234.9 401.2,240.4 417.6,241.7 434.0,247.2 450.4,248.6 466.8,245.8 483.2,247.2 499.6,244.4 516.0,237.5 532.4,234.7 548.8,227.8 565.2,225.1 581.6,226.4 598.0,223.6 614.4,225.0 630.8,230.5 647.2,231.8 663.6,237.3 680.0,246.8 696.4,252.3 712.8,261.9 729.2,267.3 745.6,268.6 762.0,274.0 778.4,275.3 794.8,272.6 811.2,273.9 827.6,271.2 844.0,264.4 860.4,261.7 876.8,254.8" fill="none" stroke="#00d2d3" stroke-width="1.8" stroke-linecap="round" />
<polyline points="220.8,204.0 237.2,205.4 253.6,206.8 270.0,208.2 286.4,209.5 302.8,210.9 319.2,212.2 335.6,213.6 352.0,214.9 368.4,216.3 384.8,217.7 401.2,219.0 417.6,220.4 434.0,221.8 450.4,223.1 466.8,224.5 483.2,225.8 499.6,227.2 516.0,228.6 532.4,230.0 548.8,231.4 565.2,232.7 581.6,234.1 598.0,235.4 614.4,236.8 630.8,238.1 647.2,239.5 663.6,240.8 680.0,242.2 696.4,243.5 712.8,244.8 729.2,246.2 745.6,247.5 762.0,248.9 778.4,250.2 794.8,251.5 811.2,252.9 827.6,254.2 844.0,255.6 860.4,257.0 876.8,258.3" fill="none" stroke="#e056fd" stroke-width="1.8" stroke-linecap="round" />
<line x1="65" y1="392" x2="885" y2="392" stroke="#2a2e39" stroke-width="1" />
<text x="65" y="402" fill="#848e9c" font-size="10">成交量 VOL</text>
<text x="893" y="416" fill="#848e9c" font-size="9">261,355</text>
<text x="73.2" y="522" fill="#848e9c" font-size="10" text-anchor="middle">07-03</text>
<text x="204.4" y="522" fill="#848e9c" font-size="10" text-anchor="middle">07-15</text>
<text x="335.6" y="522" fill="#848e9c" font-size="10" text-anchor="middle">07-27</text>
<text x="466.8" y="522" fill="#848e9c" font-size="10" text-anchor="middle">08-06</text>
<text x="598.0" y="522" fill="#848e9c" font-size="10" text-anchor="middle">08-18</text>
<text x="729.2" y="522" fill="#848e9c" font-size="10" text-anchor="middle">08-28</text>
<text x="860.4" y="522" fill="#848e9c" font-size="10" text-anchor="middle">09-09</text>
</svg>